<svg width="430" height="96" viewBox="0 0 430 96" fill="none" xmlns="http://www.w3.org/2000/svg">
<path d="M53.3332 50.6666C53.3332 63.9999 43.9998 70.6666 32.9065 74.5332C32.3256 74.7301 31.6946 74.7207 31.1198 74.5066C19.9998 70.6666 10.6665 63.9999 10.6665 50.6666V31.9999C10.6665 31.2927 10.9475 30.6144 11.4476 30.1143C11.9477 29.6142 12.6259 29.3332 13.3332 29.3332C18.6665 29.3332 25.3332 26.1332 29.9732 22.0799C30.5381 21.5972 31.2568 21.332 31.9998 21.332C32.7429 21.332 33.4616 21.5972 34.0265 22.0799C38.6932 26.1599 45.3332 29.3332 50.6665 29.3332C51.3737 29.3332 52.052 29.6142 52.5521 30.1143C53.0522 30.6144 53.3332 31.2927 53.3332 31.9999V50.6666Z" stroke="#5086ED" stroke-width="6" stroke-linecap="round" stroke-linejoin="round"/>
<path d="M24 48.0001L29.3333 53.3334L40 42.6667" stroke="#5086ED" stroke-width="6" stroke-linecap="round" stroke-linejoin="round"/>
<path d="M82.912 25.072V70H71.968V25.072H82.912ZM112.603 33.904C116.784 33.904 120.112 35.2693 122.587 38C125.104 40.688 126.363 44.4 126.363 49.136V70H115.483V50.608C115.483 48.2187 114.864 46.3627 113.627 45.04C112.39 43.7173 110.726 43.056 108.635 43.056C106.544 43.056 104.88 43.7173 103.643 45.04C102.406 46.3627 101.787 48.2187 101.787 50.608V70H90.843V34.288H101.787V39.024C102.896 37.4453 104.39 36.208 106.267 35.312C108.144 34.3733 110.256 33.904 112.603 33.904ZM148.496 70.512C145.381 70.512 142.608 69.9787 140.176 68.912C137.744 67.8453 135.824 66.3947 134.416 64.56C133.008 62.6827 132.219 60.592 132.048 58.288H142.864C142.992 59.5253 143.568 60.528 144.592 61.296C145.616 62.064 146.875 62.448 148.368 62.448C149.733 62.448 150.779 62.192 151.504 61.68C152.272 61.1253 152.656 60.4213 152.656 59.568C152.656 58.544 152.123 57.7973 151.056 57.328C149.989 56.816 148.261 56.2613 145.872 55.664C143.312 55.0667 141.179 54.448 139.472 53.808C137.765 53.1253 136.293 52.08 135.056 50.672C133.819 49.2213 133.2 47.28 133.2 44.848C133.2 42.8 133.755 40.944 134.864 39.28C136.016 37.5733 137.68 36.2293 139.856 35.248C142.075 34.2667 144.699 33.776 147.728 33.776C152.208 33.776 155.728 34.8853 158.288 37.104C160.891 39.3227 162.384 42.2667 162.768 45.936H152.656C152.485 44.6987 151.931 43.7173 150.992 42.992C150.096 42.2667 148.901 41.904 147.408 41.904C146.128 41.904 145.147 42.16 144.464 42.672C143.781 43.1413 143.44 43.8027 143.44 44.656C143.44 45.68 143.973 46.448 145.04 46.96C146.149 47.472 147.856 47.984 150.16 48.496C152.805 49.1787 154.96 49.8613 156.624 50.544C158.288 51.184 159.739 52.2507 160.976 53.744C162.256 55.1947 162.917 57.1573 162.96 59.632C162.96 61.7227 162.363 63.6 161.168 65.264C160.016 66.8853 158.331 68.1653 156.112 69.104C153.936 70.0427 151.397 70.512 148.496 70.512ZM204.92 34.288V70H193.976V65.136C192.866 66.7147 191.352 67.9947 189.432 68.976C187.554 69.9147 185.464 70.384 183.16 70.384C180.429 70.384 178.018 69.7867 175.928 68.592C173.837 67.3547 172.216 65.584 171.064 63.28C169.912 60.976 169.336 58.2667 169.336 55.152V34.288H180.216V53.68C180.216 56.0693 180.834 57.9253 182.072 59.248C183.309 60.5707 184.973 61.232 187.064 61.232C189.197 61.232 190.882 60.5707 192.12 59.248C193.357 57.9253 193.976 56.0693 193.976 53.68V34.288H204.92ZM223.725 40.24C225.005 38.2773 226.605 36.7413 228.525 35.632C230.445 34.48 232.578 33.904 234.925 33.904V45.488H231.917C229.186 45.488 227.138 46.0853 225.773 47.28C224.407 48.432 223.725 50.48 223.725 53.424V70H212.781V34.288H223.725V40.24ZM237.98 52.08C237.98 48.4107 238.662 45.1893 240.028 42.416C241.436 39.6427 243.334 37.5093 245.724 36.016C248.113 34.5227 250.78 33.776 253.724 33.776C256.241 33.776 258.438 34.288 260.316 35.312C262.236 36.336 263.708 37.68 264.732 39.344V34.288H275.676V70H264.732V64.944C263.665 66.608 262.172 67.952 260.252 68.976C258.374 70 256.177 70.512 253.66 70.512C250.758 70.512 248.113 69.7653 245.724 68.272C243.334 66.736 241.436 64.5813 240.028 61.808C238.662 58.992 237.98 55.7493 237.98 52.08ZM264.732 52.144C264.732 49.4133 263.964 47.2587 262.428 45.68C260.934 44.1013 259.1 43.312 256.924 43.312C254.748 43.312 252.892 44.1013 251.356 45.68C249.862 47.216 249.116 49.3493 249.116 52.08C249.116 54.8107 249.862 56.9867 251.356 58.608C252.892 60.1867 254.748 60.976 256.924 60.976C259.1 60.976 260.934 60.1867 262.428 58.608C263.964 57.0293 264.732 54.8747 264.732 52.144Z" fill="white"/>
<path d="M312.841 25.072V33.84H294.537V43.312H308.233V51.824H294.537V70H283.593V25.072H312.841ZM329.537 22.64V70H318.593V22.64H329.537ZM353.724 70.512C350.225 70.512 347.068 69.7653 344.252 68.272C341.479 66.7787 339.281 64.6453 337.66 61.872C336.081 59.0987 335.292 55.856 335.292 52.144C335.292 48.4747 336.103 45.2533 337.724 42.48C339.345 39.664 341.564 37.5093 344.38 36.016C347.196 34.5227 350.353 33.776 353.852 33.776C357.351 33.776 360.508 34.5227 363.324 36.016C366.14 37.5093 368.359 39.664 369.98 42.48C371.601 45.2533 372.412 48.4747 372.412 52.144C372.412 55.8133 371.58 59.056 369.916 61.872C368.295 64.6453 366.055 66.7787 363.196 68.272C360.38 69.7653 357.223 70.512 353.724 70.512ZM353.724 61.04C355.815 61.04 357.585 60.272 359.036 58.736C360.529 57.2 361.276 55.0027 361.276 52.144C361.276 49.2853 360.551 47.088 359.1 45.552C357.692 44.016 355.943 43.248 353.852 43.248C351.719 43.248 349.948 44.016 348.54 45.552C347.132 47.0453 346.428 49.2427 346.428 52.144C346.428 55.0027 347.111 57.2 348.476 58.736C349.884 60.272 351.633 61.04 353.724 61.04ZM429.482 34.288L419.818 70H407.722L402.09 46.832L396.266 70H384.234L374.506 34.288H385.45L390.506 59.824L396.522 34.288H408.106L414.186 59.696L419.178 34.288H429.482Z" fill="#5086ED"/>
</svg>
